<svg xmlns="http://www.w3.org/2000/svg" viewBox="0 0 183.2989 146.8557"><title>Asset 1</title><g id="Layer_2" data-name="Layer 2"><g id="Layer_1-2" data-name="Layer 1"><path d="M170.5231,74.1084a1.5234,1.5234,0,0,0-1.9356-1.2824c-.2831.04-.5594.1517-.8375.2059-.349.0652-.6983.1084-1.07.167.0085.0746-.0085.1669.0273.2246.3558.622.7135,1.2441,1.0848,1.8552a2.0523,2.0523,0,0,0,2.1661.9772c.4865-.0517.6712-.1789.7576-.662a2.0619,2.0619,0,0,0,0-.6779c-.0373-.2746-.1423-.5348-.1932-.8076" fill="#cd9973"/><path d="M139.0241,109.0074c2.7619-.263,7.6267,3.8372,9.4766,6.6121s2.733,6.3375,3.288,7.6324,1.665,4.6249,1.11,6.1048-2.14,1.73-3.99,1.9146-4.07-2.0349-5.55-2.22-4.81-.74-5.7348.185a6.5668,6.5668,0,0,1-4.44,1.85c-1.85,0-2.96-.37-3.7-1.6649s-2.3-1.9146-1.93-5.9845c.1431-1.5739,2.6318-6.3375,3.9268-9.1124A8.8333,8.8333,0,0,1,139.0241,109.0074Z" fill="#cd9973"/><path d="M123.8546,134.9066c1.3108-1.8009,4.07-2.405,4.9948-1.295s4.44,1.85,5.55,1.48,2.7749-1.665,5.92-1.85,5.55,4.07,7.2148,3.5149,3.33-1.6649,4.07-1.85.37,5.55-1.6649,7.03-10.8365,3.9307-13.2414,3.7457-6.738-2.2657-7.848-2.8207a20.5715,20.5715,0,0,1-4.7739-3.6578C122.9655,137.9086,122.3746,136.9415,123.8546,134.9066Z" fill="#cd9973"/><path d="M110.7546,143.2363c.1835-1.2819,5.1987-3.5445,6.6786-3.73s2.8877,2.3985,4.1624,3.0359c1.886.9437,4.8595,2.4312,4.4765,3.35-.6374,1.5291-3.21.8242-5.43.6392S110.2,147.1212,110.7546,143.2363Z" fill="#cd9973"/><path d="M125.9647,33.0087a21.6718,21.6718,0,0,1,3.5726-3.7028c1.8254-1.6158,3.9759-1.6432,6.1843-1.5753a7.9693,7.9693,0,0,1,4.97,2.0465c1.704,1.4843,3.59,2.9454,4.4139,5.2188.6546,1.8008,1.1938,3.6146.1894,5.5007a13.9923,13.9923,0,0,0-.4409,1.5942c-.35.9337-.7516,1.8527-1.1476,2.7676a1.68,1.68,0,0,1-.36.4972,12.3422,12.3422,0,0,1-8.9882,3.5236,23.46,23.46,0,0,1-2.7474-.3281,8.4056,8.4056,0,0,1-3.856-2.2706,10.3422,10.3422,0,0,1-3.5668-8.1643,9.4538,9.4538,0,0,1,1.7762-5.1075" fill="#cd9973"/><path d="M134.3389,74.7417c-.734,0-1.3243-1.1734-1.3243-2.6207l-.3081-17.2439c0-1.2.7284-2.1734,1.63-2.1734.8933,0,1.6269.9732,1.6269,2.1734l-.3118,17.2439c0,1.4473-.5867,2.6207-1.3125,2.6207" fill="#cd9973"/><path d="M134.3381,0c.67,0,1.2122.1239,1.2122,1.61l.5452,20.3c0,1.4209-.7933,2.5712-1.7591,2.5712-.9746,0-1.7621-1.15-1.7621-2.5712l.5407-20.3c0-1.4858.5452-1.61,1.2231-1.61" fill="#cd9973"/><path d="M165.7525,38.2426c0,.46-.5723.8282-1.2792.8282l-14.3843.8125a1.5074,1.5074,0,0,1,0-2.98l14.3843.509c.7069,0,1.2792.37,1.2792.8308" fill="#cd9973"/><path d="M96.1734,38.3919c0-.4605.5723-.8308,1.28-.8308l21.1255-.6583a1.5074,1.5074,0,0,1,0,2.98L97.4538,39.22c-.7081,0-1.28-.3677-1.28-.8282" fill="#cd9973"/><path d="M155.5507,60.0756c-.2448.26-.3971.5062-1.0579-.1938l-6.5171-5.8393c-.7022-.7053-.895-1.67-.4225-2.1426.4722-.4756,1.4238-.2862,2.1327.4225l5.6974,6.613c.6608.6933.4127.874.1674,1.14" fill="#cd9973"/><path d="M110.8894,16.4482c.1618-.1853.4005-.2609.9041.1832l10.6613,8.21c.7224.6338.6584,1.2122.2372,1.698a1.1292,1.1292,0,0,1-1.7729.0674l-9.7162-9.2925c-.5058-.4439-.4749-.6745-.3135-.8664" fill="#cd9973"/><path d="M170.4216,55.1678c-.1511.3647-1.0125.3182-1.9381-.1146l-8.1394-3.4313a1.1618,1.1618,0,0,1-.6518-1.2726c.1477-.4258.6813-.5477,1.1873-.2715l8.144,3.6384c.9218.4327,1.5487,1.0833,1.398,1.4516" fill="#cd9973"/><path d="M113.6646,30.13c.1116-.5249.9029-.99,1.8078-.4027l4.6062,2.3645a.9819.9819,0,0,1,.6,1.0648c-.1165.3724-.5741.5012-1.0213.2793l-5.0384-2.08c-.9111-.5825-1.0691-.7012-.9546-1.2263" fill="#cd9973"/><path d="M120.3505,10.4182l2.1359,4.44c.3791.684.6937.7553,1.0915.591.4042-.1607.6291-.6858.2468-1.3733l-2.413-4.3518c-.21-.39-.62-.6859-.9777-.5084S120.1839,10.0832,120.3505,10.4182Z" fill="#cd9973"/><path d="M124.1242,16.836c.4045-.1951.9137-.1364,1.4479.922l2.0156,4.2693c.3.6556.0906,1.1014-.227,1.2539-.3174.1592-.6227-.0338-.9227-.6924l-2.3388-4.1319c-.5346-1.0584-.38-1.43.025-1.6209" fill="#cd9973"/><path d="M150.2531,32.6083c-.069-.2217.3352-.5558.8953-.7487l13.3389-4.9038c.5619-.1928,1.1162-.0248,1.2383.3754.1242.3963-.2346.8753-.7965,1.0684l-13.5323,4.2627c-.5619.1931-1.0766.17-1.1437-.054" fill="#cd9973"/><path d="M98.2708,22.3565c.1489-.2987.3476-.5327,1.1834-.1522l11.2988,5.2776a1.1534,1.1534,0,0,1,.6665,1.3094c-.1706.42-.7528.5171-1.2991.2147L98.9133,23.2819c-.8418-.3778-.7885-.6268-.6425-.9254" fill="#cd9973"/><path d="M115.3018,46.3785l4.7439-1.6213c.4167-.169.9223-.6067.7306-1.1372s-.8988-.56-1.3135-.3906l-4.6013,1.7557c-.7035.2932-1.5423.5491-1.2652,1.2609S114.5954,46.6686,115.3018,46.3785Z" fill="#cd9973"/><path d="M124.9355,59.531c-.4806-.1947-.75-.737-.3973-1.8433l1.9831-4.295a.7808.7808,0,0,1,1.1711-.4672c.3225.2043.5746.2748.2061,1.3434l-1.6,4.1241c-.3522,1.11-.8737,1.3341-1.3631,1.138" fill="#cd9973"/><path d="M141.4811,23.85c-.3746-.1614-.4886-.3661-.1213-1.5372l3.98-8.7181c.1522-.583.8024-.8993,1.0973-.7482s.4264.4265.1137,1.1372l-3.8489,8.9126c-.3637,1.1667-.8535,1.1151-1.2205.9537" fill="#cd9973"/><path d="M147.1381,11.4805c-.3438-.1738-.5492-.3738-.1455-1.4185l1.11-2.2824c.2005-.5149.6207-.808.9363-.6534.3131.15.4065.6879.2087,1.2027l-1.0021,2.3441c-.4007,1.0447-.7639.9732-1.1074.8075" fill="#cd9973"/><path d="M149.8614,45.867c.1139-.3024.535-.3616,1.23-.0033l4.6732,2.0631a.8469.8469,0,0,1,.4948.9579c-.1174.32-.5321.4123-.9258.2061l-4.6629-2.138c-.6946-.3523-.9255-.7837-.8089-1.0858" fill="#cd9973"/><path d="M168.1363,38.186c-.0062-.3735.4858-.6979,1.1031-.7275l4.4273-.1408c.7739.0369,1.173.3,1.1792.737.0091.6392-.3369.613-1.0318.6634l-4.5459.0775c-.6175.0326-1.1258-.2392-1.1319-.61" fill="#cd9973"/><path d="M115.0893,54.3153c-.2383-.3725-.5021-.72.3993-1.416l6.0937-4.4239c.6307-.4419,1.3764-.457,1.6675-.0331.2937.4212.023,1.1233-.6077,1.5626l-6.3032,4.2458c-.9089.6956-1.0188.4366-1.25.0646" fill="#cd9973"/><path d="M99.3942,51.2984c-.1416-.4407.0348-.7746,1.1087-1.1649l9.9832-3.2979c.5569-.1832,1.1038-.0322,1.2282.34.1224.37-.2263.8233-.7814,1.0065l-9.9366,3.55c-1.0673.3774-1.4644.0068-1.6021-.4337" fill="#cd9973"/><path d="M142.1066,53.3639c.4154-.03,1.0607-.2461,1.2814.18l2.0661,13.2882c.0809.4277-.0838.8209-.3657.8758-.2861.0564-.5839-.2472-.6676-.675l-2.6732-12.8383c-.2057-.4279-.0448-.8007.359-.831" fill="#cd9973"/><path d="M155.794,17.8846c.2472.2541.2453.6184-.43,1.3072l-8.6138,9.1143a.9376.9376,0,0,1-1.3482.2044,1.1668,1.1668,0,0,1,.029-1.7018l9.0268-8.5436c.6748-.6855,1.079-.635,1.3357-.3805" fill="#cd9973"/><path d="M23.0992,119.5578s-7.3058,3.6392-8.5386,5.3648c-1.2343,1.7286-1.2343,4.1942,0,4.1942a2.0138,2.0138,0,0,1,1.9713,2.22c0,1.2342.4943,3.4542-.4914,4.44-.9886.9857-3.4542,2.96-3.4542,2.96s2.96,1.48,4.6855.9857c1.7286-.4914,8.8812-1.9728,8.3884-3.7-.4943-1.7256-3.9455-4.0915-3.4542-5.6712.7082-2.2836,2.8067-2.4873,3.3444-3.6247C26.3829,124.969,26.799,122.5177,23.0992,119.5578Z" fill="#cd9973"/><path d="M11.352,128.3769a17.4012,17.4012,0,0,1,.7475,3.8922c0,1.48-.2,3.0206-1.4336,4.0062a15.7206,15.7206,0,0,1-4.4937,2.9555c-1.9713.74-7.4.4914-5.92-1.2342a59.4839,59.4839,0,0,1,6.0586-5.8592C7.92,130.7991,11.352,128.3769,11.352,128.3769Z" fill="#cd9973"/><path d="M48.6,119.7428c-1.2343-1.8412-5.18-2.3644-7.8941-2.1014a10.9634,10.9634,0,0,1-6.0007-1.3874l.0029.0145a7.596,7.596,0,0,0-5.1018-.1389A14.2413,14.2413,0,0,0,27.03,117.28a6.965,6.965,0,0,0,2.8674,4.0408c.987.5261,1.0954,1.9482.9249,3.9919-.1388,1.6765-3.0669,2.52-3.4224,5.177-.2458,1.8383,2.4511,2.136,2.9455,3.4483.4943,1.3153-.8643,2.7952-1.6043,3.8445-.74,1.0521-1.11,2.4656.6186,2.2026,1.7256-.2631,9.62.526,11.591-.7891,1.9743-1.3124,7.1541-7.6224,8.6341-10.2528C51.0651,126.3159,49.8308,121.5842,48.6,119.7428Z" fill="#cd9973"/><path d="M36.9073,104.0739c1.11-1.6338,5.92-6.289,6.29-6.7826s1.9728-4.6863,2.59-5.4263a12.68,12.68,0,0,0,1.6043-3.8234,7.7176,7.7176,0,0,1,1.2328-3.0835,8.9566,8.9566,0,0,1,2.8977-.8325c.8628-.1236,3.0123.2291,3.0206-.5239.0091-.8272.5424-5.7746.6667-7.2545.1705-2.0493-.1018-1.6276-1.174-9.0307,0,0-1.4178.37-1.665.74s-1.3156,3.6-1.6856,4.0932-2.4539.9849-3.0711,1.3549-2.0666,9.9611-2.5291,12.736S41.44,90.0454,41.44,88.5655s.5839-7.2747.5839-7.2747-1.665-.0592-2.1275,3.0857a53.6392,53.6392,0,0,1-2.1244,6.0078c-.6019,1.8-.8212,2.08-1.3171,3.35-.2616.67-.6734,2.3784-1.1324,3.8143-.5367,1.6792.298,4.7084-4.7083,4.47a12.4019,12.4019,0,0,0,.128,4.3993,8.29,8.29,0,0,0,3.5756,4.5642c1.1042.7357,3.0784,2.642,6.284,2.3964,1.8615-.1446,6.5874-.4943,8.5589.1213,1.3325.4162,4.0265,2.9078,5.0136,4.1421.9871,1.2328,1.2328,6.0427,2.3428,5.92s5.057-.37,6.4141-1.48,6.0426-2.59,5.6727-3.7-3.9471-2.7142-5.6727-3.0842-6.7841-5.18-7.5241-7.6455c-.74-2.4671-1.3556-9.8668-1.6028-10.9768s-.8643-2.4671-.9871-3.5771-.1229-3.7-.1229-3.7-2.097-2.22-2.7127.1235-1.6707,5.9936-2.165,7.35-3.0524,4.273-3.5467,5.0129-1.8414,1.7807-3.6913,3.8164S35.7973,105.7078,36.9073,104.0739Z" fill="#cd9973"/><path d="M68.5413,96.7052s.6475,4.3474.925,7.4923a70.79,70.79,0,0,1-.4929,9.8654,24.2633,24.2633,0,0,1-5.1495-2.4656c-1.2357-.9481-3.7592-2.0378-4.9948-3.7924a9.3509,9.3509,0,0,1-1.3253-4.4709,50.765,50.765,0,0,1,2.22-6.4127,25.0306,25.0306,0,0,0,1.2328-3.2071,5.6292,5.6292,0,0,1,1.11-1.48c.6475-.7089,2.22-.37,2.3442.37a34.8914,34.8914,0,0,1-.7717,4.9334V102.07s1.9424,3.33,2.6217-3.2988C66.3733,97.6671,66.3214,96.0888,68.5413,96.7052Z" fill="#cd9973"/><path d="M67.4111,64.0452a16.7645,16.7645,0,0,1-1.14-4.0085c0-.9525,3.7938-9.32,4.6754-11.245,1.0175-2.22,3.6854-8.1122,4.1624-9.0647A40.77,40.77,0,0,1,77.49,35.1239,2.3388,2.3388,0,0,1,78.901,34.64l-.555,8.6947s.925,2.7135,1.85,1.0485c.2775-.5008,2.4252-12.2558,2.7446-13.32.555-1.85,3.4658-3.8263,5.1812-4.3805.5434-.1757,2.5395.4755,3.1739,3.3327s2.6188,22.8563,2.9368,24.4431,1.4294,5.7139,1.1113,7.46a53.91,53.91,0,0,0-.4768,7.1424c0,1.7459-.6114,5.8195-.6114,6.7719,0,.78,1.6537,5.077,2.2532,6.61a1.2343,1.2343,0,0,0,.8011.737c.9379.2814,2.7386.6983,3.4291.0078a6.5748,6.5748,0,0,1,1.4959-1.2162s1.5276.8916.8917,1.6562c-1.0145,1.2205-5.0959,7.1433-5.8895,8.095S95.49,95.054,94.38,94.5778s-2.9322-6.8124-3.25-8.8762-.8927-4.5279-1.4785-5.0908c-.8095-.7779-2.2435-.5992-2.2435-2.0278s-.7992-12.2472-1.292-13.4807-3.7867-.646-4.1047.1481-4.2852,7.3023-5.2376,8.73-3.0162,3.4918-3.3328,5.2377.6359,5.396-.6359,5.0787c-1.269-.3172-1.7458-.9517-2.0638-2.8565s-.8426-4.1285-1.11-5.5556a11.2828,11.2828,0,0,1-.1647-4.4313A5.8869,5.8869,0,0,1,70.9,69.06c.6359-.7934,4.2867-3.9671,5.2377-4.7613.9539-.7943,4.226-5.2081,5.1683-6.0724,1.11-1.0174,2.856-7.4483,3.7219-7.9989.527-.3347,2.3992-.555,2.9207.3562.3511.6128,1.6821,9.8627,1.7746,10.9726.15,1.8038.5319,4.2491.6475,5.3649.1792,1.743.6934,2.2,1.3327,1.6317.8046-.7151,1.0418-1.52,1.341-6.4367a44.227,44.227,0,0,0-2.1187-8.7s-.6924-4.6028-1.01-5.8725-.8132-2.512-1.43-4.917c-.6431-2.5118-3.0452-.6383-3.36.925a25.49,25.49,0,0,1-2.2719,5.333,29.5774,29.5774,0,0,1-2.2869,4.994c-.5983.8983-2.4049,3.7-2.1274,2.8674a37.4232,37.4232,0,0,0-.6475-4.81s-1.227-1.6757-1.6649.185c-.4943,2.0964-1.99,5.2276-2.4656,6.8145-.477,1.5869-1.8066,4.252-2.6015,4.8865S67.9661,65.71,67.4111,64.0452Z" fill="#cd9973"/><path d="M70.6221,135.3477a.8811.8811,0,0,0-.1739,1.336,6.5,6.5,0,0,0,3.468,2.2118c2.2214.318,13.1737.318,13.81,0,.633-.3164,2.5378-2.3789,2.3789-3.0148s.2874-8.1752.2874-8.1752l3.4009-9.0784.2023-4.4891L91.3881,109.84l-2.0755.0116.3345,5.815-1.6049,5.4523s-.9878,1.725-1.9264,1.5782-.6157-1.2342-.6157-1.2342l1.1128-6.2147s-1.9034-1.7472-2.3789-.6359-2.5581,7.3449-2.5581,7.3449a28.11,28.11,0,0,1-2.22,4.6855c-.7936.954-5.6987,6.6974-5.6987,6.6974Z" fill="#cd9973"/><path d="M98.2445,66.35l-.3571,8.3318a1.8374,1.8374,0,0,0,.0708.59l.5058,1.7454a1.838,1.838,0,0,0,2.2224,1.2688,3.9815,3.9815,0,0,0,1.6409-.6542,64.065,64.065,0,0,0,2.6983-6.19c.4755-1.4286,2.3789-6.9842,3.0148-7.6186a28.5706,28.5706,0,0,1,4.04-2.2945,1.76,1.76,0,0,0,.3351-.2148c.5046-.4086,1.9811-1.6742,1.9116-2.4394-.1142-1.2581-2.6969-6.0318-2.8674-6.66-.2775-1.0175-1.5928-.6561-1.99-.1366-.6.7841-2.2114,3.5843-3.0048,4.854-.6247.9995-2.0438,3.1223-2.6194,3.98a1.7846,1.7846,0,0,0-.2964.8153c-.1371,1.2812-.55,5.02-.9056,7.0158-.4334,2.433-1.4712,3.4918-1.8512,1.7855s-.6086-2.2408-.9872-4.1927S98.2445,66.35,98.2445,66.35Z" fill="#cd9973"/><path d="M107.16,74.8931a1.8472,1.8472,0,0,1,.128-.3811c.2575-.5566,1.04-2.2673,1.3044-3.0585.3179-.9523,1.7371-3.7278,2.055-4.363.24-.48,1.8623-.7141,2.6388-.8a1.8562,1.8562,0,0,0,.7991-.28c.761-.4822,2.3913-1.5634,2.5128-2.0485.1589-.6344,1.1444-3.7383,1.1444-3.7383s.8526-2.7515,1.487-2.2753a30.4612,30.4612,0,0,1,3.33,5.3649c.3164.7935,1.9886,3.207,2.4642,4.0006a13.2874,13.2874,0,0,1,.7935,4.6031,44.1185,44.1185,0,0,1-.6346,4.7614s-1.3411,2.3746-1.9756.7869-3.5018-6.4335-3.9774-7.8622-1.7458-2.5393-2.5393-2.222A6.3626,6.3626,0,0,0,113.992,68.81c-.6344.7934-1.9843,2.9483-2.6187,3.9007-.511.7671-2.1114,2.5978-2.7149,3.2813a1.9026,1.9026,0,0,1-.5426.4258l-.943-.0425Z" fill="#cd9973"/><path d="M101.1625,92.7279s1.2516-2.0075,1.7271-2.96,3.7229-5.1531,3.7229-5.1531l.84-.15.3078,4.7477s2.7749.8549,2.7749.0614c0-2.22.8643-9.7426.8643-9.7426l2.3558-3.6463,1.4278-3.1746s1.7475-.3164,2.2229.1591a24.0907,24.0907,0,0,1,1.7458,3.65s1.7459,3.4916,2.38,4.4441,2.2214,3.968,2.2214,3.968,1.5884,2.38,1.27,3.3328-2.6983,4.92-2.6983,4.92a11.2491,11.2491,0,0,1-2.5408-1.1974c-.4755-.4763-1.902-4.04-2.3789-4.5164s-1.9063-1.9048-2.3818-.9525-1.5884,2.0632-1.9048,3.1745a31.4583,31.4583,0,0,1-1.4281,4.6033,9.4655,9.4655,0,0,1-1.4278,2.38c-.7934.7942-1.4294,0-2.0638-.7934s-.951-2.38-1.428-2.38S100.21,95.2671,101.1625,92.7279Z" fill="#cd9973"/><path d="M102.95,97.3527c-1.3976-.1748-2.7749,2.59-2.7749,3.8849s.185,5.92,0,7.2148-2.0349,2.96-2.4049,3.8849a11.4554,11.4554,0,0,0-.185,3.7,40.7,40.7,0,0,1-.4625,4.44s-1.2024,4.07-1.5724,5.3648-1.11,2.035-1.11,2.96.74,3.7.555,4.9949a10.5034,10.5034,0,0,0,1.06,3.8616,1.2066,1.2066,0,0,0,1.407.7017l3.8878-.9711a1.6914,1.6914,0,0,0,.9088-.5819l5.6862-7.08a25.8605,25.8605,0,0,0,1.3571-4.07c0-.74-1.9121-7.2147-2.4671-7.77s-2.1274,1.2328-3.0524,1.4178-.74,1.5421-.74,2.8371a21.727,21.727,0,0,1-1.14,4.5005s-2.0046,1.8818-2.56,1.5118-.03-2.4975-.03-3.2374a43.8567,43.8567,0,0,1,.4928-4.6249,6.16,6.16,0,0,1,.925-2.7749,19.5908,19.5908,0,0,1,2.22-1.85c.555-.37,2.035-1.5725,2.035-1.5725s-1.11-6.5673-1.11-7.6773,2.3124-1.6649,2.6824-.37,1.7575,4.3474,1.9425,5.0874.74,1.9424.9249,2.6824,1.0175,3.33,1.0175,3.33.74,2.0349,1.11,3.1449.9249,2.4049.9249,2.4049a22.948,22.948,0,0,0,2.405,2.1275c.7848.49,1.45-2.1275,1.45-2.1275a35.013,35.013,0,0,0-1.5421-5.92,52.4336,52.4336,0,0,1-2.59-6.1973c-.74-2.22-2.035-4.7173-2.59-6.3823-.4133-1.2408-1.6649-2.0349-2.59-3.5149S104.43,97.5377,102.95,97.3527Z" fill="#cd9973"/><path d="M143.8434,100.1191a6.8414,6.8414,0,0,0-.8415-1.6063,1.5215,1.5215,0,0,1-.1673-.2975l-2.4092-5.798c-.1823-.5465-1.1413-.435-1.8008-.2864a1.5322,1.5322,0,0,0-.9511.659c-.6919,1.0619-2.33,3.5553-2.8832,4.2175-.7062.849-4.18,4.1287-4.39,5.1854-.4258,2.1211.1233,1.4506.8308,2.2989s3.2232-.6619,4.0709-.8035,2.9908-1.1631,4.6524-.997c1.341.1344,4.3487,1.69,4.7914,1.4682S144.1264,100.9674,143.8434,100.1191Z" fill="#cd9973"/><path d="M142.354,77.1269c-.37-.555-3.7-1.7885-4.07-1.0485-.305.6106-1.9945,3.6111-2.5755,4.6416a17.4338,17.4338,0,0,0-1.8643,2.7581c-.74,1.665-1.2025.8325-1.2025-.0925s-1.3253-2.62-1.6953-3.4223c-.3093-.6721-1.4944-1.0088-1.9121-.37a20.1115,20.1115,0,0,0-1.85,3.2684l1.295,3.3914s.2774.6474-.37,2.96c-.2993,1.0688-2.405,4.44-3.1449,6.1048s-2.405,3.8849-2.405,5.7348.925,2.59,1.85,2.59,1.48-2.4049,1.85-3.5149,4.44-5.3648,5.18-6.29c.5549-.6929,3.6152-5.3631,6.2152-8.5672a1.9053,1.9053,0,0,1,2.48.0575c.555.555,3.51,3.25,3.51,3.25s2.78,1.0046,2.41.08S142.724,77.6819,142.354,77.1269Z" fill="#cd9973"/><path d="M118.4291,116.0371s-5.3027-11.1-5.797-12.58.8007-3.3609,1.0478-4.3473,1.7893-6.1352,1.7893-6.1352,1.7559-.71,2.0031.03S120.4,98.74,120.1547,99.48a40.73,40.73,0,0,0-.8325,4.1623,5.8844,5.8844,0,0,0,.925,3.33s2.22,2.6521,2.96,1.665,1.636.1243,1.8818.8643.9856,2.7127.4928,3.4527-2.59,6.1655-4.07,6.6583S118.4291,116.0371,118.4291,116.0371Z" fill="#cd9973"/><path d="M61.1791,89.2709c.4769-.9526,1.269-2.54,1.9049-2.3812a5.3762,5.3762,0,0,1,2.2228,1.7459c.6343.7934,1.581,1.8846,2.217,2.52A18.6547,18.6547,0,0,0,68.98,92.322a.5119.5119,0,0,0,.8162-.3172L70.36,88.811a.5127.5127,0,0,0-.0195-.2565,15.8874,15.8874,0,0,0-1.3681-3.1029c-.6345-.9523-.451-3.8537-.7688-4.6471-.2826-.7046-1.6933-3.5933-2.0056-4.2311a.4865.4865,0,0,0-.1845-.2046.9937.9937,0,0,0-1.4565.4046,22.936,22.936,0,0,0-1.6043,4.0387c-.2472.9864-1.3483.6311-2.0883.1686-.5926-.37-.4-.9864-.2774-1.6035s1.727-3.5452,1.9742-4.6552c.2457-1.11,1.7256-3.9463,1.85-4.81.1213-.8635-.9872-4.44-1.11-5.427a27.1771,27.1771,0,0,0-2.7142-6.4126c-.5575-.5581-2.9363,3.9387-3.381,4.7938a.4826.4826,0,0,0-.0522.2922c.167,1.3041,1.3463,10.5061,1.46,11.1935a41.1418,41.1418,0,0,1-1.11,6.4126c-.2366.826-.6334,5.7257-.6669,6.1431a.4949.4949,0,0,0-.0014.0571l.2014,6.24s.503,2.0515,1.1447.91C59.0141,92.6354,60.7022,90.2232,61.1791,89.2709Z" fill="#cd9973"/><path d="M90.2539,98.7954,88.9183,94.21a.8867.8867,0,0,1-.0338-.1918c-.0546-.85-.4558-7.0152-.6413-7.7652l-.0063-.0244a.8961.8961,0,0,0-1.741.1686,22.4906,22.4906,0,0,1-.38,2.3532c-.2776,1.0175-2.405-.925-2.3125-2.7749.0874-1.7453-.3194-8.3477-.3657-9.0893a.8014.8014,0,0,1,.0031-.1394c.0682-.66.5875-5.6916.7023-6.9583.1228-1.3564-.9871-1.7264-1.7271.1235s-1.6752,5.3375-2.6275,6.29a26.8062,26.8062,0,0,0-3.2924,3.9462c-.2471.6172-.03,6.0116-.0606,7.0913,0,0-.0983,11.5478.0606,13.1353a4.5613,4.5613,0,0,1-1.11,3.2063c-.4769.7941-1.311.0787-1.7865-1.1909s-.3627-5.9256-.6791-7.1952c-.1211-.4835-.1028-1.9008-.6924-1.6853-.3714.2986-.6565,2.3771-.9367,3.3859a.8523.8523,0,0,0-.0218.3653c.2326,1.5152.9715,7.7371.9715,9.0641,0,1.0347-.2913,4.6978-.4518,6.6371a.8965.8965,0,0,0,1.2221.9026,2.5056,2.5056,0,0,0,1.2229-.8394c.6344-.954,4.4441-5.7147,4.603-7.46s.7077-7.7006.7077-8.97.2434-3.0919.8793-3.251,2.0638.1591,2.0638,1.27.0369,9.7292-.44,11.2788c-.4,1.3.7232-.1785-2.7151,5.5824-.324.543-.7441,1.24-1.1994,1.98a.8968.8968,0,0,0-.0147.9119c.2756.4883.559,1.0073.8309,1.5148a.8951.8951,0,0,0,1.5957-.0359c2.15-4.4713,4.422-9.1984,4.9573-9.6445a4.3646,4.3646,0,0,1,3.1738-.7949c1.27,0,3.1739,0,3.6507.477.477.4755,1.7474,3.0148,2.3819,3.0148s1.11-1.2689,1.428-2.38a45.1383,45.1383,0,0,0,.4479-5.6695.8946.8946,0,0,0-.8041-.9233l-4.7584-.4882A.8958.8958,0,0,1,90.2539,98.7954Z" fill="#cd9973"/><path d="M65.98,124.135c-1.4925.7464-5.0447,1.387-6.8176,2.24a.9831.9831,0,0,0-.3329,1.5243l2.3082,2.7155a.9737.9737,0,0,0,.47.3055c.9059.2637,3.7318,1.0454,4.528.7808a24.34,24.34,0,0,0,5.55-2.59,27.0117,27.0117,0,0,0,4.9341-5.4269c.1959-.31.48-.8333.8262-1.5057a.9817.9817,0,0,0-.0684-1.0166C76.6221,120.1009,67.885,123.1827,65.98,124.135Z" fill="#cd9973"/><path d="M182.1986,88.7562c-.3758-.6271-.7775-1.2385-1.2083-1.8266-.3454-.4713-.7862-.8716-1.1257-1.3471-.9972-1.4048-1.9571-2.84-2.9484-4.2506-.3122-.4437-.675-.8513-1.0725-1.3454-.3684-.7733-.3684-.9077-.6025-1.4787a7.6293,7.6293,0,0,1-.4944-1.6186c-.3526-1.4467-.7747-2.8718-1.1489-4.3112-.2371-.91-.1706-1.9439-.7981-2.6175a3.2539,3.2539,0,0,0-1.4234-.857c-.6865-.1489-1.9245-.7683-2.906-.5235a9.6573,9.6573,0,0,1-6.5966-.1644,7.5858,7.5858,0,0,1-1.3933-.5709c-.831-.5333-4.08-2.5624-4.7476-2.94a8.2166,8.2166,0,0,0-2.6522-.7731c-.4971-.0911-5.2747-1.1407-4.7535,5.031-.0318.4161-.0129,4.56.0349,5.4774.0244.47.4348,2.5091.7689,3.9109.1155.3873.3756.0507.4536-.01a5.1578,5.1578,0,0,1,1.2619-.8223,12.16,12.16,0,0,1,2.0523-.4741,4.97,4.97,0,0,1,3.6767.4785,5.6645,5.6645,0,0,1,1.2645,1.3007c.4683.5766,1,1.0058,1.4077,1.6a27.07,27.07,0,0,1,1.4482,2.3776,5.8491,5.8491,0,0,0,1.9539,2.2734c.5941.4176,1.8933.2254,2.587.4,1.5885.4046,2.4758,1.8948,3.5714,3.1291A4.6177,4.6177,0,0,1,169.882,91.84a8.8291,8.8291,0,0,1-.1185,2.6912c-.2862,1.48-1.5984.7861-1.5161-.3757.0262-.3758.0116-.7515.0535-1.123a6.4823,6.4823,0,0,0-.2717-2.0264,4.344,4.344,0,0,0-1.9582-2.48,4.4221,4.4221,0,0,0-1.5929-.7443c-2.3832-.6952-4.9774,1.0681-6.2783-2.7951a13.5387,13.5387,0,0,0-.935-2.8776c-.51-.6864-.2513-.5781-.8946-1.1258-1.0623-.8961-1.6331-.37-3-.27a2.9671,2.9671,0,0,0-1.7632.7082c-1.4338,1.21-.7963,2.123-.6968,2.4122s3.083,3.9107,2.4181,7.0065a3.2586,3.2586,0,0,0,.9423,2.522,8.9487,8.9487,0,0,0,1.2515,1.2024,3.81,3.81,0,0,0,1.6564.9107c.6418.1271,1.2532.2456,1.9252.3959a18.6812,18.6812,0,0,0,2.3933.0766c4.2129.2963,4.4614,4.6091,3.4989,5.1453-.7761.4349-1.3051-3.4319-4.1421-3.0619-1.2228.16-2.5481.211-2.9107,1.1816-.2963.7912-.6664,1.2854-2.1463,1.4083a22.25,22.25,0,0,0-5.4772,1.36c-.9871.4929-1.1213,2.2341-.1934,3.2342,1.6028,1.7257,4.5009,2.2533,6.4081,5.2008,1.0216,1.5789-.12,5.991,1.73,5.4967,0,0,5.3856-1.9229,7.6623-2.9674,2.2312-.95,5.2244-2.5131,6.9362-4.62.7762-.7327,1.4221-1.5536,2.1189-2.3543a52.2251,52.2251,0,0,0,3.3676-4.0264c.2425-.3369.4912-.6721.6978-1.0277.5824-.9973,1.1275-2.009,1.7143-3.0019.5592-.9523,1.1792-1.8715,1.72-2.8356a5.063,5.063,0,0,0,.8121-2.8269A7.5491,7.5491,0,0,0,182.1986,88.7562Zm-7.7929-7.5146c-.5709.0679-.6317-.3526-.74-.6344a4.9726,4.9726,0,0,0-1.6143-2.0913,1.8626,1.8626,0,0,0-1.5913-.4394c-1.2531.2255-3.0515.6489-4.0269-.253-.8861-.8194-.9809-2.3976-1.4449-3.5364a3.52,3.52,0,0,0-2.9238-2.5019,1.86,1.86,0,0,1-.6734-.1791c-.1287-.0709-.3989-.1756-.2731-.4236.013-.284.2977-.2485.4263-.23.6735.097,1.95.1107,2.616.2278a4.3883,4.3883,0,0,0,1.0636.1112,13.9631,13.9631,0,0,0,3.0308-.6511c.3959-.104,1.0427-.236,1.4368-.323a1.7084,1.7084,0,0,1,1.74.4369,3.6135,3.6135,0,0,1,.69,1.9283c.3093,1.5161.5607,3.0466.9278,4.5481a16.078,16.078,0,0,0,.9,2.3415A2.71,2.71,0,0,1,174.4057,81.2416Z" fill="#cd9973"/></g></g></svg>